<svg width="40" height="40" viewBox="0 0 40 40" fill="none" xmlns="http://www.w3.org/2000/svg">
<g clip-path="url(#clip0_981_8737)">
<path d="M36.25 6.86338C36.2401 5.83551 35.8255 4.85296 35.0961 4.12875C34.3666 3.40454 33.381 2.99705 32.3531 2.99463L7.62813 2.9165C6.60127 2.91671 5.61639 3.32407 4.88941 4.04929C4.16244 4.77451 3.75269 5.7584 3.75 6.78525V32.2915C3.75 34.4243 5.49063 36.0415 7.62813 36.0415H28.75L27.7344 32.604L36.25 40.4165V6.86338ZM25.3633 27.4329C25.3633 27.4329 24.682 26.6212 24.1133 25.9235C26.593 25.2251 27.5391 23.6978 27.5391 23.6978C26.858 24.1495 26.1281 24.523 25.3633 24.811C24.4802 25.1777 23.5607 25.4498 22.6203 25.6228C20.9999 25.9204 19.3384 25.914 17.7203 25.604C16.7686 25.4273 15.837 25.155 14.9398 24.7915C14.4652 24.6097 14.0037 24.3954 13.5586 24.1501C13.5016 24.1126 13.4453 24.0939 13.3883 24.0556C13.35 24.0368 13.3313 24.0181 13.3102 24.0181C12.9695 23.829 12.7805 23.697 12.7805 23.697C12.7805 23.697 13.6883 25.1884 16.0914 25.9048C15.5234 26.622 14.8234 27.4524 14.8234 27.4524C10.643 27.3204 9.05391 24.6032 9.05391 24.6032C9.05391 18.5829 11.7781 13.6954 11.7781 13.6954C14.5023 11.6759 17.075 11.7329 17.075 11.7329L17.2641 11.9595C13.8586 12.922 12.3078 14.4126 12.3078 14.4126C12.3078 14.4126 12.7234 14.186 13.4234 13.8837C15.4477 12.997 17.0563 12.7704 17.7203 12.6954C17.8263 12.6734 17.934 12.6606 18.0422 12.6571C19.3099 12.4926 20.5926 12.4801 21.8633 12.6196C23.8584 12.8488 25.7913 13.4574 27.5578 14.4126C27.5578 14.4126 26.0633 12.9946 22.8469 12.0337L23.1117 11.7321C23.1117 11.7321 25.7031 11.6751 28.4094 13.6978C28.4094 13.6978 31.1336 18.5853 31.1336 24.6056C31.1336 24.5837 29.5438 27.3009 25.3633 27.4329V27.4329Z" fill="#AA67FF"/>
<path d="M16.5664 18.6978C15.4883 18.6978 14.6367 19.6228 14.6367 20.7735C14.6367 21.9243 15.5071 22.8493 16.5664 22.8493C17.6446 22.8493 18.4961 21.9251 18.4961 20.7735C18.5157 19.6204 17.6446 18.6978 16.5664 18.6978ZM23.4711 18.6978C22.393 18.6978 21.5414 19.6228 21.5414 20.7735C21.5414 21.9243 22.4117 22.8493 23.4711 22.8493C24.55 22.8493 25.4008 21.9251 25.4008 20.7735C25.4008 19.622 24.5313 18.6978 23.4711 18.6978Z" fill="#AA67FF"/>
</g>
<defs>
<clipPath id="clip0_981_8737">
<rect width="40" height="40" fill="white"/>
</clipPath>
</defs>
</svg>
