<svg width="40" height="40" viewBox="0 0 40 40" fill="none" xmlns="http://www.w3.org/2000/svg">
<path d="M15.6768 27.4985H11.2502C9.26112 27.4985 7.35347 26.7084 5.94694 25.3018C4.54042 23.8953 3.75024 21.9877 3.75024 19.9985C3.75024 18.0094 4.54042 16.1018 5.94694 14.6952C7.35347 13.2887 9.26112 12.4985 11.2502 12.4985H15.5791" stroke="#AA67FF" stroke-width="2.25" stroke-linecap="square" stroke-linejoin="round"/>
<path d="M24.4211 12.4985H28.75C30.7391 12.4985 32.6468 13.2887 34.0533 14.6952C35.4598 16.1018 36.25 18.0094 36.25 19.9985C36.25 21.9877 35.4598 23.8953 34.0533 25.3018C32.6468 26.7084 30.7391 27.4985 28.75 27.4985H24.3234" stroke="#AA67FF" stroke-width="2.25" stroke-linecap="square" stroke-linejoin="round"/>
<path d="M13.2087 19.9976H26.9478" stroke="#AA67FF" stroke-width="2.25" stroke-linecap="square" stroke-linejoin="round"/>
</svg>
