<svg width="40" height="40" viewBox="0 0 40 40" fill="none" xmlns="http://www.w3.org/2000/svg">
<g clip-path="url(#clip0_980_8728)">
<path d="M39.7375 11.6232C39.7375 8.10762 37.1516 5.27949 33.9563 5.27949C29.6282 5.07715 25.2141 4.99902 20.7032 4.99902H19.2969C14.7969 4.99902 10.375 5.07715 6.04692 5.28027C2.85942 5.28027 0.273485 8.12402 0.273485 11.6396C0.0781728 14.4201 -0.00463966 17.2014 4.78381e-05 19.9826C-0.00776466 22.7639 0.080777 25.5477 0.265673 28.3342C0.265673 31.8498 2.85161 34.7014 6.03911 34.7014C10.586 34.9123 15.25 35.006 19.9922 34.9982C24.7422 35.0139 29.3933 34.9149 33.9453 34.7014C37.1407 34.7014 39.7266 31.8498 39.7266 28.3342C39.9141 25.5451 40 22.7639 39.9922 19.9748C40.0099 17.1936 39.925 14.4097 39.7375 11.6232ZM16.1719 27.6467V12.2951L27.5 19.967L16.1719 27.6467Z" fill="#AA67FF"/>
</g>
<defs>
<clipPath id="clip0_980_8728">
<rect width="40" height="40" fill="white"/>
</clipPath>
</defs>
</svg>
