<svg width="40" height="40" viewBox="0 0 40 40" fill="none" xmlns="http://www.w3.org/2000/svg">
<path d="M34.7008 2.50098H5.49062C3.89453 2.50098 2.5 3.64941 2.5 5.22676V34.5017C2.5 36.0877 3.89453 37.501 5.49062 37.501H34.6922C36.2969 37.501 37.5 36.0783 37.5 34.5017V5.22676C37.5094 3.64941 36.2969 2.50098 34.7008 2.50098ZM13.3492 31.6752H8.33515V16.0853H13.3492V31.6752ZM11.0156 13.715H10.9797C9.375 13.715 8.33594 12.5205 8.33594 11.0252C8.33594 9.50254 9.40234 8.33613 11.043 8.33613C12.6836 8.33613 13.6875 9.49394 13.7234 11.0252C13.7227 12.5205 12.6836 13.715 11.0156 13.715ZM31.6742 31.6752H26.6601V23.151C26.6601 21.1088 25.9305 19.7135 24.1164 19.7135C22.7305 19.7135 21.9101 20.651 21.5453 21.5643C21.4086 21.8924 21.3719 22.3393 21.3719 22.7955V31.6752H16.3578V16.0853H21.3719V18.2549C22.1016 17.2158 23.2414 15.7205 25.8937 15.7205C29.1851 15.7205 31.675 17.89 31.675 22.5674L31.6742 31.6752Z" fill="black"/>
</svg>
