<svg width="40" height="40" viewBox="0 0 40 40" fill="none" xmlns="http://www.w3.org/2000/svg">
<path d="M38.7498 8.55519C37.3431 9.1664 35.8548 9.56908 34.3318 9.7505C35.9324 8.8133 37.136 7.32438 37.717 5.563C36.2038 6.44784 34.551 7.06868 32.8295 7.39894C32.1046 6.6392 31.2327 6.0348 30.2669 5.62249C29.3012 5.21018 28.2616 4.99856 27.2115 5.0005C22.96 5.0005 19.5193 8.39112 19.5193 12.5708C19.5163 13.1522 19.5829 13.7318 19.7178 14.2974C16.6691 14.1545 13.6838 13.3767 10.9529 12.014C8.22203 10.6512 5.80566 8.73344 3.85841 6.38331C3.17527 7.53497 2.81398 8.84897 2.81232 10.188C2.81232 12.813 4.18185 15.1333 6.24982 16.4927C5.0246 16.4636 3.8245 16.1393 2.75138 15.5474V15.6411C2.75138 19.313 5.40763 22.3677 8.92325 23.063C8.26215 23.2392 7.58088 23.3285 6.89669 23.3286C6.4112 23.3295 5.92682 23.2824 5.4506 23.188C6.42794 26.1958 9.27247 28.3833 12.642 28.4458C9.90402 30.5559 6.54249 31.6964 3.08575 31.688C2.47217 31.6871 1.85916 31.6506 1.24982 31.5786C4.76636 33.8241 8.85407 35.0118 13.0264 35.0005C27.1951 35.0005 34.9357 23.4614 34.9357 13.4536C34.9357 13.1255 34.9272 12.7974 34.9115 12.4771C36.4139 11.4084 37.7137 10.0803 38.7498 8.55519V8.55519Z" fill="black"/>
</svg>
