<svg width="40" height="40" viewBox="0 0 40 40" fill="none" xmlns="http://www.w3.org/2000/svg">
<path d="M35.5687 2.49902H4.43276C3.92042 2.49923 3.42912 2.70285 3.06684 3.06513C2.70456 3.42741 2.50094 3.91871 2.50073 4.43105V35.567C2.50094 36.0793 2.70456 36.5706 3.06684 36.9329C3.42912 37.2952 3.92042 37.4988 4.43276 37.499H20.0007V23.749H15.8171V18.749H20.0007V14.7646C20.0007 10.2443 23.1359 7.7834 27.1742 7.7834C29.1062 7.7834 31.1843 7.92871 31.6671 7.99277V12.7139H28.4499C26.2531 12.7139 25.8343 13.7529 25.8343 15.2842V18.749H31.0687L30.3851 23.749H25.8343V37.499H35.5687C36.081 37.4988 36.5723 37.2952 36.9346 36.9329C37.2969 36.5706 37.5005 36.0793 37.5007 35.567V4.43105C37.5005 3.91871 37.2969 3.42741 36.9346 3.06513C36.5723 2.70285 36.081 2.49923 35.5687 2.49902V2.49902Z" fill="white"/>
</svg>
