<svg width="40" height="40" viewBox="0 0 40 40" fill="none" xmlns="http://www.w3.org/2000/svg">
<path d="M27.2912 5.41641C29.2235 5.42218 31.0749 6.19231 32.4412 7.55861C33.8075 8.92491 34.5776 10.7764 34.5834 12.7086V27.2914C34.5776 29.2236 33.8075 31.0751 32.4412 32.4414C31.0749 33.8077 29.2235 34.5778 27.2912 34.5836H12.7084C10.7762 34.5778 8.92473 33.8077 7.55843 32.4414C6.19213 31.0751 5.42199 29.2236 5.41622 27.2914V12.7086C5.42199 10.7764 6.19213 8.92491 7.55843 7.55861C8.92473 6.19231 10.7762 5.42218 12.7084 5.41641H27.2912V5.41641ZM27.2912 2.5H12.7084C7.09357 2.5 2.49982 7.09375 2.49982 12.7086V27.2914C2.49982 32.9062 7.09357 37.5 12.7084 37.5H27.2912C32.9061 37.5 37.4998 32.9062 37.4998 27.2914V12.7086C37.4998 7.09375 32.9061 2.5 27.2912 2.5V2.5Z" fill="white"/>
<path d="M29.4789 12.708C29.0462 12.708 28.6233 12.5797 28.2636 12.3393C27.9038 12.099 27.6235 11.7573 27.4579 11.3576C27.2923 10.9579 27.249 10.5181 27.3334 10.0937C27.4178 9.66941 27.6262 9.27964 27.9321 8.97371C28.238 8.66779 28.6278 8.45945 29.0521 8.37504C29.4765 8.29064 29.9163 8.33396 30.316 8.49952C30.7157 8.66509 31.0574 8.94547 31.2977 9.3052C31.5381 9.66493 31.6664 10.0879 31.6664 10.5205C31.667 10.8079 31.6108 11.0927 31.5011 11.3584C31.3914 11.624 31.2303 11.8654 31.0271 12.0687C30.8238 12.2719 30.5824 12.433 30.3167 12.5428C30.0511 12.6525 29.7663 12.7086 29.4789 12.708V12.708Z" fill="white"/>
<path d="M19.9998 14.1654C21.1535 14.1654 22.2814 14.5076 23.2407 15.1486C24.2001 15.7896 24.9478 16.7007 25.3893 17.7666C25.8308 18.8326 25.9463 20.0055 25.7213 21.1371C25.4962 22.2687 24.9406 23.3082 24.1247 24.124C23.3089 24.9398 22.2694 25.4954 21.1378 25.7205C20.0062 25.9456 18.8333 25.8301 17.7673 25.3886C16.7014 24.947 15.7903 24.1993 15.1493 23.24C14.5083 22.2807 14.1662 21.1528 14.1662 19.999C14.1678 18.4524 14.783 16.9695 15.8766 15.8759C16.9703 14.7822 18.4531 14.1671 19.9998 14.1654V14.1654ZM19.9998 11.249C18.2692 11.249 16.5774 11.7622 15.1385 12.7237C13.6996 13.6851 12.5781 15.0517 11.9158 16.6505C11.2535 18.2494 11.0803 20.0087 11.4179 21.7061C11.7555 23.4034 12.5889 24.9625 13.8126 26.1862C15.0363 27.4099 16.5954 28.2433 18.2927 28.5809C19.9901 28.9185 21.7494 28.7452 23.3482 28.083C24.9471 27.4207 26.3137 26.2992 27.2751 24.8603C28.2366 23.4213 28.7498 21.7296 28.7498 19.999C28.7498 17.6784 27.8279 15.4528 26.1869 13.8118C24.546 12.1709 22.3204 11.249 19.9998 11.249V11.249Z" fill="white"/>
</svg>
