<svg width="40" height="40" viewBox="0 0 40 40" fill="none" xmlns="http://www.w3.org/2000/svg">
<path d="M15.6768 27.4985H11.2503C9.26115 27.4985 7.3535 26.7084 5.94697 25.3018C4.54045 23.8953 3.75027 21.9877 3.75027 19.9985C3.75027 18.0094 4.54045 16.1018 5.94697 14.6952C7.3535 13.2887 9.26115 12.4985 11.2503 12.4985H15.5792" stroke="white" stroke-width="2.25" stroke-linecap="square" stroke-linejoin="round"/>
<path d="M24.4211 12.4985H28.75C30.7391 12.4985 32.6468 13.2887 34.0533 14.6952C35.4598 16.1018 36.25 18.0094 36.25 19.9985C36.25 21.9877 35.4598 23.8953 34.0533 25.3018C32.6468 26.7084 30.7391 27.4985 28.75 27.4985H24.3234" stroke="white" stroke-width="2.25" stroke-linecap="square" stroke-linejoin="round"/>
<path d="M13.2087 19.9976H26.9478" stroke="white" stroke-width="2.25" stroke-linecap="square" stroke-linejoin="round"/>
</svg>
